# xmcd
#
# Track frame offsets: 
#        150
#        13496
#        26695
#        40852
#        54958
#        68443
#        81482
#        95328
#        109049
#        122602
#        136349
#        150970
#        165180
#        178124
#        192745
#        207939
#        222702
#        238197
#        252926
#        265896
#        280120
#
# Disc length: 3926 seconds
#
# Revision: 0
# Processed by: cddbd v1.5.2PL0 Copyright (c) Steve Scherf et al.
# Submitted via: ExactAudioCopyFreeDBPlugin 1.0
#
DISCID=2a0f5415
DTITLE=Biddleville Quintette - Complete Recorded Works In Chronologica
DTITLE=l Order Volume 2 1929
DYEAR=1995
DGENRE=Gospel
TTITLE0=The Lord Giveth
TTITLE1=Jesus Is Gonna Shake My Righteous Hand
TTITLE2=Got The Heaven In My View
TTITLE3=Coming To Christ
TTITLE4=I Heard The Voice Of Jesus Say
TTITLE5=Pharoah's Army Got Drowned
TTITLE6=Handwriting On The Wall
TTITLE7=Judas And Jesus Walked Together
TTITLE8=Goin' To Heaven Anyway
TTITLE9=Jesus Is A Rock In The Weary Land
TTITLE10=Blessed Be The Tie That Binds
TTITLE11=I Stretch My Hand To Thee
TTITLE12=I'm Going Up To Live With God
TTITLE13=As I Live Let Me Live In Love
TTITLE14=I'm Tormented In The Flame
TTITLE15=Dip In The Beautiful Stream
TTITLE16=Birmingham Jubilee Singers - I'm Going To Sit At The Welcome 
TTITLE16=Table
TTITLE17=Birmingham Jubilee Singers - I'm Going To Serve God Till I Di
TTITLE17=e
TTITLE18=Birmingham Jubilee Singers - I Want God's Bosom To Be Mine
TTITLE19=Birmingham Jubilee Singers - Join The Band
TTITLE20=Silver Leaf Quartette Of Norfolk - Oh! Glory Glory
EXTD=
EXTT0=
EXTT1=
EXTT2=
EXTT3=
EXTT4=
EXTT5=
EXTT6=
EXTT7=
EXTT8=
EXTT9=
EXTT10=
EXTT11=
EXTT12=
EXTT13=
EXTT14=
EXTT15=
EXTT16=
EXTT17=
EXTT18=
EXTT19=
EXTT20=
PLAYORDER=
